<svg width="1000" height="1000" viewBox="0 0 1000 1000" fill="none" xmlns="http://www.w3.org/2000/svg">
<path d="M847.38 392.378C891.949 392.378 927.194 405.342 953.116 431.269C979.039 457.197 992 494.496 992 543.168V751.271H957.892V545.897C957.892 505.868 947.659 475.392 927.194 454.468C907.184 433.544 878.987 423.082 842.605 423.082C800.766 423.082 767.794 435.591 743.691 460.609C719.588 485.626 707.536 519.287 707.536 561.59V751.271H673.428V245H707.536V469.479C719.815 444.916 738.006 426.038 762.109 412.847C786.213 399.201 814.636 392.378 847.38 392.378Z" fill="url(#paint0_linear_421_169)"/>
<path d="M651.049 245V751.271H617.623V667.347C603.525 695.094 583.742 716.473 558.274 731.484C532.807 746.495 503.928 754 471.639 754C438.44 754 408.425 746.267 381.593 730.802C354.761 715.336 333.614 693.957 318.151 666.665C303.144 639.373 295.64 608.214 295.64 573.189C295.64 538.164 303.144 507.005 318.151 479.713C333.614 451.966 354.761 430.587 381.593 415.576C408.425 400.111 438.44 392.378 471.639 392.378C503.474 392.378 531.897 399.883 556.91 414.894C582.378 429.905 602.388 450.829 616.941 477.666V245H651.049ZM473.686 723.296C500.972 723.296 525.303 716.928 546.677 704.192C568.507 691.455 585.561 673.715 597.84 650.972C610.574 628.228 616.941 602.301 616.941 573.189C616.941 544.077 610.574 518.15 597.84 495.406C585.561 472.663 568.507 454.923 546.677 442.186C525.303 429.45 500.972 423.082 473.686 423.082C446.399 423.082 421.841 429.45 400.011 442.186C378.637 454.923 361.583 472.663 348.849 495.406C336.57 518.15 330.43 544.077 330.43 573.189C330.43 602.301 336.57 628.228 348.849 650.972C361.583 673.715 378.637 691.455 400.011 704.192C421.841 716.928 446.399 723.296 473.686 723.296Z" fill="url(#paint1_linear_421_169)"/>
<path fill-rule="evenodd" clip-rule="evenodd" d="M304.289 707.298C292.967 718.5 279.824 727.7 264.86 734.895C241.666 745.812 215.743 751.271 187.092 751.271C152.529 751.271 121.604 743.538 94.3175 728.072C67.0308 712.607 45.6562 691.228 30.1937 663.936C14.7312 636.189 7 605.03 7 570.46C7 535.435 14.7312 504.276 30.1937 476.984C45.6562 449.237 67.0308 427.858 94.3175 412.847C121.604 397.382 152.529 389.649 187.092 389.649C215.743 389.649 241.666 395.335 264.86 406.706C279.825 413.615 292.969 422.618 304.292 433.716C297.689 442.003 291.675 450.951 286.252 460.56C275.625 449.23 263.264 440.376 249.17 433.999C230.524 424.901 209.831 420.352 187.092 420.352C159.351 420.352 134.338 426.721 112.054 439.457C90.2245 451.739 72.9429 469.251 60.2091 491.995C47.9301 514.738 41.7906 540.893 41.7906 570.46C41.7906 600.026 47.9301 626.181 60.2091 648.925C72.9429 671.668 90.2245 689.408 112.054 702.145C134.338 714.426 159.351 720.567 187.092 720.567C209.831 720.567 230.524 716.246 249.17 707.603C263.205 700.918 275.522 691.9 286.12 680.548C291.577 690.088 297.633 699.005 304.289 707.298Z" fill="url(#paint2_linear_421_169)"/>
<defs>
<linearGradient id="paint0_linear_421_169" x1="992.051" y1="754.001" x2="164.636" y2="918.623" gradientUnits="userSpaceOnUse">
<stop stop-color="#FF00F5"/>
<stop offset="1" stop-color="#FF003D"/>
</linearGradient>
<linearGradient id="paint1_linear_421_169" x1="992.051" y1="754.001" x2="164.636" y2="918.623" gradientUnits="userSpaceOnUse">
<stop stop-color="#FF00F5"/>
<stop offset="1" stop-color="#FF003D"/>
</linearGradient>
<linearGradient id="paint2_linear_421_169" x1="992.051" y1="754.001" x2="164.636" y2="918.623" gradientUnits="userSpaceOnUse">
<stop stop-color="#FF00F5"/>
<stop offset="1" stop-color="#FF003D"/>
</linearGradient>
</defs>
</svg>
